<mxfile host="app.diagrams.net" modified="2024-07-07T11:01:59.419Z" agent="Mozilla/5.0 (Macintosh; Intel Mac OS X 10_15_7) AppleWebKit/537.36 (KHTML, like Gecko) Chrome/126.0.0.0 Safari/537.36" etag="keK1g5TGjrJXZzISqVzQ" version="24.6.4" type="google">
  <diagram name="Page-1" id="822b0af5-4adb-64df-f703-e8dfc1f81529">
    <mxGraphModel grid="1" page="1" gridSize="10" guides="1" tooltips="1" connect="1" arrows="1" fold="1" pageScale="1" pageWidth="1100" pageHeight="850" background="none" math="0" shadow="0">
      <root>
        <mxCell id="0" />
        <mxCell id="1" parent="0" />
        <UserObject label="https://www.ibm.com/content/dam/adobe-cms/instana/media_logo/GKE.png/_jcr_content/renditions/cq5dam.web.1280.1280.png" id="pS3SIrE1LRcRS9kYWRk5-18">
          <mxCell style="rounded=0;whiteSpace=wrap;html=1;fontStyle=1" vertex="1" parent="1">
            <mxGeometry x="-260" y="-190" width="1760" height="1110" as="geometry" />
          </mxCell>
        </UserObject>
        <UserObject label="https://www.ibm.com/content/dam/adobe-cms/instana/media_logo/GKE.png/_jcr_content/renditions/cq5dam.web.1280.1280.png" id="pS3SIrE1LRcRS9kYWRk5-8">
          <mxCell style="rounded=0;whiteSpace=wrap;html=1;fillColor=#cdeb8b;strokeColor=#36393d;" vertex="1" parent="1">
            <mxGeometry x="-160" y="41" width="1560" height="760" as="geometry" />
          </mxCell>
        </UserObject>
        <mxCell id="pS3SIrE1LRcRS9kYWRk5-9" value="Region: us-east" style="text;html=1;align=left;verticalAlign=middle;whiteSpace=wrap;rounded=0;" vertex="1" parent="1">
          <mxGeometry x="-140" y="50" width="210" height="40" as="geometry" />
        </mxCell>
        <mxCell id="pS3SIrE1LRcRS9kYWRk5-41" style="edgeStyle=orthogonalEdgeStyle;rounded=0;orthogonalLoop=1;jettySize=auto;html=1;" edge="1" parent="1" source="pS3SIrE1LRcRS9kYWRk5-29" target="pS3SIrE1LRcRS9kYWRk5-14">
          <mxGeometry relative="1" as="geometry" />
        </mxCell>
        <mxCell id="pS3SIrE1LRcRS9kYWRk5-19" value="Google Cloud platform" style="text;html=1;align=center;verticalAlign=middle;whiteSpace=wrap;rounded=0;" vertex="1" parent="1">
          <mxGeometry x="-240" y="-160" width="160" height="30" as="geometry" />
        </mxCell>
        <mxCell id="pS3SIrE1LRcRS9kYWRk5-27" value="" style="rounded=0;whiteSpace=wrap;html=1;" vertex="1" parent="1">
          <mxGeometry x="40" y="110" width="480" height="150" as="geometry" />
        </mxCell>
        <mxCell id="pS3SIrE1LRcRS9kYWRk5-22" value="" style="shape=image;verticalLabelPosition=bottom;labelBackgroundColor=default;verticalAlign=top;aspect=fixed;imageAspect=0;image=data:image/png,iVBORw0KGgoAAAANSUhEUgAABAoAAAMMCAYAAADaWkW/AABMvElEQVR4XuzdC5xkZX3gfTT3bLKb3WyS3U3e7G7Wd5O8rDjdNdwEDSqJt3iLwbsJcRWFqeq5cEeEERQMIiIGENSAF0QEVLygQgTloiigCCh3QRhmpqq6e/o+fZnu562ndRJ9qhhmpqu7z1P1/X4+v0/ykZnu06dqqs7z7zrn7LEHAAAAAAAAAAAAAAAAAAAAAAAAAAAAAAAAAAAAAAAAAAAAAAAAAAAAAAAAAAAAAAAAAAAAAAAAAAAAAAAAAAAAAAAAAAAAAAAAAAAAAAAAAAAAAAAAAAAAAAAAAAAAAAAAAAAAAAAAAAAAAAAAAAAAAAAAAAAAAAAAAAAAAAAAAAAAAAAAAAAAAAAAAAAAAAAAAAAAAAAAAAAAAAAAAAAAAAAAAAAAAAAAAAAAAAAAAAAAAAAAAAAAAAAAAAAAAAAAAAAAAAAAAAAAAAAAAAAAAAAAAAAAAAAAAAAAAAAAAAAAAAAAAAAAAAAAAAAAAAAAAAAAAAAAAAAAAAAAAAAAAAAAAAAAAAAAAAAAAAAAAAAAAAAAAAAAAAAAAAAAAAAAAAAAAAAAAAAAAAAAAAAAAAAAAAAAAAAAAAAAAAAAAAAAAAAAAAAAAAAAAAAAAAAAAAAAAAAAAAAAAAAAAAAAAAAAAAAAAAAAAAAAAAAAAAAAAAAAAAAAAAAAAAAAAAAAAAAAAAAAAAAAAAAAAAAAAAAAAAAAAAAAAAAAAAAAAAAAAAAAAAAAAAAAAAAAAAAAAAAAAAAAAAAAAAAAAAAAAAAAAAAAAAAAAAAAAAAAAAAAAAAAAAAAAAAAAAAAAAAAAAAAAAAAAAAAAAAAAAAAAAAAAAAAAAAAAAAAAAAAAAAAAAAAAAAAAAAAAAAAAAAAAAAAAAAAAAAAAAAAAAAAAAAAAAAAAAAAAAAAAAAAAAAAAAAAAAAAAAAAAAAAAAAAAAAAAAAAAAAAAAAAAAAAAAAAAAAAAAAAAAAAAAAAAAAAAAAAAAAAAAAAAAAAAAAAAAAAAAAAAAAAAAAAAAAAAAAAAAAAAAAAAAAAAAAAAEVWOmzjb67oq/2/K8vVA1aW6wf1lOsvLZWrL4/F/z/+b/G/xT8T/2z69wEAAIAM7b22+ic9ffXX9PZV15cqtctLlfrdvZXaSKOwi43Evxu/Rvxa8WvGr51+PwAAAKBAVqzZ9D8ai/pyb1/tM43/u7HFgr/dbfzZ9yrH751uDwAAALDEVvZt/j895dppjcX6XS0W8kvdXXFb4jal2wkAAAAskn1WbfjdUqXW11iY39ZisV6UbovbGLc13X4AAACgDXqPqD2tt692bmMRPtFiYV7UJua3ubHt6c8DAAAA7IZnrNq0Z2PBfWWjuRYL8VyK235l/FnSnw8AAADYCaXVg3/cU65d/LNFdrrwzrW5+DPFny39eQEAAIAWDjim/ts9fbXTG4vqyRYL7U5pMv6M8WdNf34AAAAgWh+e2lhAH9poU4uFdacWf9ZD48+e7g4AAADoWiv6qs9sLJi/22Ih3S19N+6DdL8AAABAV9mrMvBHPX3VS1osnLuyuC+esbb/D9P9BAAAAB1t/7WP/UapXH9HY3E8ni6WVRuP+ybuo3S/AQAAQMfp7au9qrdSf6TFAlm/UGMfNfZVuv8AAACgI6xYU1vRWADf0Lwg1pN0Q9x36f4EAACALO31ts2/31upXthY8M61WARr55rrLVcviPsy3b8AAACQhT3Xh18tVepHNha5wy0Wvtq9hnv66uvivk33NwAAABRWqVJ/calSu6/FQldtKO7buI/T/Q4AAACF0rum/88bC9mvpAtbLVpfKZX7/yx9HAAAAGBZPf3wof/Y21c7u7FwnWmxmNXiNhP3/Yo1W34nfVwAAABgSR1ySPilUqV6eGOxWm+xgNXSVu8pV98WH5P0cQIAAIBFV+qrP6exOL2zxYJVy9udK8v1g9LHCwAAABbFXuXN/7OxGL2yxQJVRaqvdkV8rNLHDwAAANpizyNqv9VTrp3WWIRONi1KVdTiY/Xu+NiljycAAADspvCUnkr17xoLzo0tFqLKo8fjYxgfy/TRBQAAgJ3WW9m8X2OB+Z0WC0/lWLl+S2n15n3TxxkAAAB26Blr+/+wt6/+iaaFpjqk+sd7yvX/lj7uAAAA8AsOOvThX+/tq729sZgca15cqsOKj/EJ8TFPnwcAAACwR0+l9reNhePDLRaU6uwe7ilXX5k+HwAAAOhSPZXqMxqLxW+0WECqi+qp1K7vXV3dK31+AAAA0CV6Kpt+r7dcvaCxSJxNF43q2mZLffXz43Mjfb4AAADQoUqHhV/pLdfXNhaFQy0WilJsS2+lviY+V9LnDwAAAB2kp1x7YWMReG+LhaHUqnt6+2ovSJ9HAAAAZG7l6vqfNhZ9V7dYCEpPWk+59uVnrKr/7/R5BQAAQGZWrNnyO7191bMai72ZdPEn7WLTpUr1faXDBv9D+jwDAACg4A45JPxSb6X+1sbirtZiwSctpFpvX/2wPdaHp6bPOwAAAAqop1L/i8Zi7o4WCzypbZXKte/3rK49O33+AQAAUBAr1mz6H6VK7fJ0QSctcpfF5176fAQAAGCZ7HXU5n/XW669q7Fg29piESctRVt7+qqnxOdi+vwEAABgyYSn9Jarb2gs0h5vsXCTlr5ybUOpXH9dfG6mz1YAAAAW0cpK/z695fotTQs1qRh9a8Xq/r3T5y0AAABt1lOu/7eecu3iFgszqWjNxefq3kfU/kv6PAYAAGCBDjr04V8v9dWObyy+RlssyKQiN1oq1457WuWBX0uf1wAAAOyG3kr1b0qV2o9bLMCkfCrXHiqVqy9Pn98AAADspN7V1b0aC6zrmhZcUtbV/6VU3vz09PkOAADAEygdufE/l/rq5zcWVduaF1lSR7Stt6927j6rNvxu+vwHAADgZw5aH365VK6tbiyitrRYWEmd2GCpUuuLz/303wMAAEBX6y1Xn99YNN3TYiEldUHVH5Yq1b9K/10AAAB0nWesqv/vxkLpS80LJ6kr+0LvEbWnpf9OAAAAOl7psMH/0FOpntlYGE23WCxJ3Vzj30T9jH0rA/8+/XcDAADQedaHpzYWQW9pLIZqLRZIkv6tak+59n/jv5n0nxEAAEBH6Flde3Zj8fO9FgsiSU/c7aXVtQPTf08AAADZ6lm18b83FjuXtVgASdrZyrVLS6sH/zj99wUAAJCN0mEbf7Onr3pKY5GztWnRI2l3mujtq66P/7bSf28AAAAFFp5SKtdf11uubWix0JG08B7t6au/Jv5bS//1AQAAFEpPub6ysYj5VouFjaQ211Op3VRaVe9N/x0CAAAsu72PqP2XxsLlokZz6WJG0qIW/819dN/V1T9I/10CAAAsuadVHvi1nkrt2MZCZbTFAkbS0jXSW64es+f68Kvpv1MAAIAlUSpXX95brj3UYsEiafl6oKdcf2n67xUAAGDRlMqbn95bqf9LiwWKpOL0tWes2rRn+u8XAACgbfZfO/yfevtq5zYWINtaLEokFa9tpXLtnPhvN/33DAAAsNsOWh9+uaevVmksOgZbLEQkFbyeSnWgVK4eEf8tp/++AQAAdkmpUv2r3kr1h+nCQ1KW3dXTt/l56b9zAACAJ9V7RO1pjUXFF1osNCRlXqlS//zea6t/kv67BwAAaLJvZeDf91bqZzQWE9Pp4kJSJ1WdKlVq7zngmPpvp68DAAAAe+yxPjy1p1J7U2MBUW1eUEjq4DY1OjS+BqQvCwAAQJcqra4d2Fgo3N5iASGpe/ruir7qM9PXBwAAoIuUVg/+cW+5dmmLBYOkLq2nr3rJXpWBP0pfLwAAgA5WOmzjb/b2Vdc3FgUT6SJBkhqNl8r1d+y/9rHfSF8/AACAjhKe0tNXf01jEfBoi4WBJCXVH+ntq70qfSUBAAA6QGlVvbenUrupeSEgSU/aDSvW1FakrysAAECG9l1d/YPGQf5HG821OPiXpJ2t8RpSvXCvt23+/fR1BgAAyMCe68Ov9parxzQO7kdaHPBL0u423NNXXxdfY9LXHQAAoKB6yvWXNg7mH2xxgC9JbalUqd1XqtRfnL7+AAAABfKMVZv27OmrXZMe0EvSIvaV3jX9f56+HgEAAMto/7XD/6lUrp3TOGDf1uIgXpIWu5nevtrZK9Zs+Z309QkAAFhCB60Pv9w4OF/VU6kOtDhwl6Slrt5Trr7tkEPCL6WvVwAAwCLrqVQPbhyU39XiQF2Slrs7V5brB6WvWwAAwCIoVar/q1Spf77FgbkkFa0r9ypv/p/p6xgAANAGBxxT/+1Spfae3kp1qsXBuCQVtclG797ziNpvpa9rAADA7lgfnto4yD60p1Lb3OIAXJJy6fGeSvXv9tgjPCV9mQMAAHbSir7qMxsH17e2OOCWpDwr12/prWzeL329AwAAdmCvysAflSrVTzUdYEtSx1T/eE+5/t/S1z8AAODn7L/2sd8oVeonNQ6iJ5oPqiWp4xprdMJBhz786+nrIQAAdL3ecu3VvZX6Iy0OpCWp03u4p1x9Zfq6CAAAXWllpdbTOEi+ocWBsyR1W9/oXV3dK32dBACArrDX2zb/fk+l9uHGgfFci4NlSerWZkt99fN7Kpt+L33dBACAjrTn+vCrpb7qUY2D4eEWB8iSpJ+2pbdSX1M6LPxK+joKAAAdo3dV/a8bB7/3tzggliS17p6ecu2F6espAABkrXdN/583Dna/2uIAWJK0E/WUa19+xqr6/05fXwEAICtPP3zoP/b21c5uHORuSw96JUm73HSpUn1f6bDB/5C+3gIAQKEdtD78cuNg9vDGQW1/iwNdSdLCqvX21Q/bY314avr6CwAAhdNb7n9u4yD2zhYHtpKk9nZHz+ras9PXYQAAKIS9jxj4fxoHrVe2OJCVJC1ul+1VGfij9HUZAACWRTzNoKevvq5xoDrW4uBVkrQ0jZQqtb5DDgm/lL5OAwDAklnZt/n/NA5Ov9figFWStDzd3lMZ+P/S12sAAFhk4SmlcvWIxgHpZIuDVEnS8rY1vkbH1+r01RsAANpuxZotv9M4CP1CiwNTSVKhql4Vb1Obvo4DAEDbrFxd/9NSpXZf88GoJKmIxdfsUrn/z9LXcwAAWLBSpfpXjYPOofQgVJJU+IZ6y9Xnp6/rAACw23or9dc3DjRnWhx8SpLyaLa3XH1D+voOAAC7rFSpHj5/gNl80ClJyqyfXuQQAAB2U2+5vjY9yJQkZV65ekz6eg8AAE+qp1J7U9PBpSSpM+qrH5a+7gMAwBPqKVdf2et0A0nq5GZ7y7VXp6//AADQpLeyeb/eSnWqxUGlJKmzmm70rPR9AAAA/tUz1vb/YeOgcVOLg0lJUmdW7Vm18b+n7wcAALDHQYc+/OuNA8ZbWxxESpI6uFK59v3SYRt/M31fAACgyzUOFv8pPXiUJHVL1QvT9wUAALpYqVJ/cfNBoySpu6r+Tfr+AABAF9p3dfUPGgeIteYDRklSlzUYr1WTvk8AANBlesu1S1scLEqSurBSpf759H0CAIAuUqpU/yo9SJQkdXcr+ja/LH2/AACgC8zf5aBceyg9QJQkdX2P7nXU5n+Xvm8AANDheivVo1scHEqSFHrL9ZPT9w0AADrYijVbfqdxIDjYdGAoSdJPG+upbPq99P0DAIAO1dNXO73FQaEkSf9aqVw7J33/AACgA+2/dvg/NQ4Ax9IDQqmbWtlXC4eetSWc9dnRcOXNW8M135uc74qbtoYzrhid/2/xz6R/T+quqlN7H1H7L+n7CAAAHaa3r/b25oNBqTt67nH94aJrxkN9eDY8mfhnPvq18fm/k34dqVvqKddOS99HAADoIE+rPPBrPZXa5vRAUOr09l9XDxdcPR4mp+fSecCTmpiaC//0xbGwX+NrpF9X6oK27HlE7bfS9xMAADpEqa/29y0OAqWOrfGcD8dfNBw2Dz75JwiezOMD28JRHxlu+h5Sx9dXW5W+nwAA0CEaB3zfaDoAlDq0150xGO54aDpd7y/YbfdPh1efPtj0/aQO7rb0/QQAgA6w99rqn7Q4+JM6roNP6A+f//bWMLfrZxnstNnG1778xonwvONdv0Bd0urqXun7CgAAmeupVN/ZdOAndVD7rqmFD1w1FsYnF3FCkBiZmAtnXjka9lnTvD1SJ1WqVN+Xvq8AAJC5UqV+d3rgJ3VKay8cCo/Vt6Xr+CXz8OZtoXL+UNN2SZ1T9Sfp+woAABnbq7z5fzYf9En5d8hpg+GWe6bSdfuyuemHU+EVpw40bafUCfVUqs9I318AAMhUb6W+Jj3gk3LuoGPr4dPfnAizC7+ZQdvNbAvhk9dNhGcf43aK6qxKlfpJ6fsLAACZahzgfTU94JNybO/VtfCez4yG4fGluw7B7hocnQ3vunQkrOxr/jmkTLs5fX8BACBDhxwSfqlxcDfc4oBPyqrDzx0KD26cSdfjhXffhpnw5rO3NP08UoZN77/2sd9I32cAAMjMijW1FS0O9qRsetkpA+H6OyfT9Xd2rv3eZPjrk12/QHnXU6n/Rfo+AwBAZnr7aqvSAz0ph551dD1cfO14mF6+mxm03dT0XPjwV8fDAUe6foEyra/29vR9BgCAzPRUah9uOtCTClw8p/+dl4yEgZECXqmwTWpDs+HtHxsOJdcvUGaVKrXL0/cZAAAy0ziwuzk90JOK2pvevyXc82h+1yHYXXc+PB3eeOZg036Qilv1h+n7DAAAmWkc2A01H+hJxepFJ/WHr96e/3UIdtcXv7M1PP/E/qb9IhWwmdJh4VfS9xoAADKx7+rqH7Q4yJMK0zOPrIcLrh4Pk9PFv93hYhufnAsf/MJY2G+d6xeo2K1cXf/T9P0GAIBMlFbVe9MDPKkIxXPzT7h4OGwe7NzrEOyuDf3bwpEfHm7aZ1JhKvc/N32/AQAgEyv7ai9qOsCTlrnXnzEY7nhoOl0fk7j1/unwqtNdv0DFq1Suvy59vwEAIBO9ffXD0gM8abk6+IT+cNW3t4Y5ZxnstNnZEC6/cSI85zjXL1CBKlePSd9vAADIRE9ffV3TAZ60xO27phbOuWps/hx8ds/IxFx475WjYe/VzftXWvLKtXel7zcAAGSit6+6vukAT1rC1l04HB6rb0vXvctq48DOb0+8XkCRPLx5W1h13lDTfpaWtL7a2en7DQAAmYi/9Wk6wJOWoENOGwy33DuVrnOXVRxYrPvw8Hw76y3nbAnH/PPwLg0XlsKNd0+FV5w60LTfpaWo1Fc/P32/AQAgE/G3PukBnrSYHXRsPVx2w8T8ufVFEU95iKc+7Lf2p7cd3NVBQfw7+6+rh/O+NBa2ThXn9ImZbSF84usT4dnHuJ2ilraecu3i9P0GAIBMGBRoqYrnzv/j5aNheLw4C+l40cQv3LI1/OXbf/FCgLszKNjeC07sD1ffOpn+sWU1ODobTr10JKzsa35cpMXIoAAAIGMGBVqKDj93KDy0qVgfzf/Bj6fDG97b+taCCxkUbO/v37cl3P2TmfSPL6t7N8yEN5/denuldmZQAACQMYMCLWYvO2UgfOPOYl2HoDo0G064eDiUdvDb9XYMCmLxe5z8yZFQHy7QeRYN13xvMrz4ZNcv0OJlUAAAkDGDAi1Gzzq6Hi6+dnz+HPmimJqeCx/+ynh45pFPfr5+uwYF2zvwqHq46JrxMDVTnNMudmV/SLuaQQEAQMYMCtTO4jnw77xkJAyM5P0b9HYPCrb3kvUD4bofFOv6BfOfsPjYjj9hIe1qBgUAABkzKFC7etP7t4R7Hi3YOfmP7d45+Ys1KNjeWz+4JTy4sVj7Kl6z4Y1PcM0GaVczKAAAyJhBgRbai07qD1+9vVi/JV/oVf4Xe1AQi3eBOO2y4t0F4ovfab4LhLSrGRQAAGTMoEC7Wzy3/YKrx8PkdHEWuvGaCJ/4+kR49jELO+9+KQYF2zvo2Hq49BsTYbZAZ2uMT86Fc74wFvZbu7D9qO7NoAAAIGMGBdrV4rns8a4BmwcLtLJtuPHuqfCKU3f+OgQ7aikHBdt75bsGwrfvKdYdIjb0b5vfF+m2Sk+WQQEAQMYMCrQrvf6MwXDHQ9PpenJZPbx5W1h13lDTti6k5RgUbG/NBUPhJ7UC3S6i4Tv3TYVXne76Bdr5DAoAADJmUKCdKZ6zftW3t86fw14UIxNz4cwrR+fP9U+3d6Et56Agtu+aWjj782NhbGtxdng8NeIzN0yE5xzn+gV68gwKAAAyZlCgHRXPUT/nqrH5c9aLIi5YL79xIjx3EResyz0o2N7BJ/SHz32rWAOaePHFM65YnAGNOieDAgCAjBkU6ImKi+XH6sX6CPyt90+HVy/BR+CLMijY3uvOGAzfL9gpHw9tav8pH+qcDAoAADJmUKC0Q04bDLfcW7yL6h31kaW7qF7RBgWxeBHJ4y4q3kUkv3nXVHj5Ke25iKQ6J4MCAICMGRRoe/E2ffEc9CLdpm9iai58MN6mb93S3qaviIOC7e3f2BcfunqscLel/PjXx8Ozjl7ax0nFzaAAACBjBgWK55qfcfno/LnnRfLF72wNzz9x8a5DsKOKPCjY3gvf0R++evtkujnLamBkNpzyqZGwsq95e9VdGRQAAGTMoKC7O+LcoflzzYvkrkemwxvPXPzrEOyoHAYF2/uH928JP3p0Jt2sZXXvYzPh/569vPtFy5tBAQBAxgwKurOXnTIwf255kdSGZsOJHx+ZPxc/3d6lLqdBQSz+Bv+dl4zM/0a/SL52+2R40UnL86kQLW8GBQAAGTMo6K7iOeQf+5fx+XPKi2Jqei589Gvj4YAji3N+e26Dgu3Fx/fia8fDdMEe3wuuHg/PLNDjq8XPoAAAIGMGBd1R/I1zPHe8aL9xvvb7k+El64t3xfxcBwXbi58Y+cadxfrEyOYts+GEi4cL8YkRLX4GBQAAGTMo6Pze9P4t8+eMF8l9G2YKucDeXu6Dgu0dXsBrUNzx4+nwhvcu7zUotPgZFAAAZMygoHOL54bHc8SLZMvYbHj3p0fCytXN21ukOmVQEIt3tfjHgt3VYq6xKVd9e2v4y7e7fkGnZlAAAJAxg4LOK54LHs8Jj+eGF8W22RAuuX4i/MUxeZyn3kmDgu0ddGw9XHbDRJgt0Nkn45Nz4ZyrxsJ+a/N4XmjnMygAAMiYQUHnFM/9jueAx3PBi+TmH02FV5xavOsQ7KhOHBRs75DTBsMt9xbr+gWP1bfN7/N0W5VvBgUAABkzKOiM4jnf8dzvInmkui1Uzh9q2tYc6uRBwfbizxgX6EUSBxhxkJFuq/LLoAAAIGMGBXkXb4d3+Y0T8+d8F8XoxFw467OjYZ81zdubS90wKIjFj/zHj/7HUwCKIp4a8fGvj4f91jkdIecMCgAAMmZQkG+vfNdA2NBfnN8IzzbWmlfevDUcfEL+F6jrlkHB9uJFBePFBYs0cHpw40z465PzOmVF/5ZBAQBAxgwK8ux1ZwzO/+a+KG57YDq89j2d85HxbhsUbC+ewvKDAp3CMjAym931LfTTDAoAADJmUJBfLz55YH4BVQQbB7aFY/658y5C162Dgtj2i2JWh4rxHHu88Rx73vH5f0ql2zIoAADImEFBXq1sLOJuu3/5f+O7dWounPelsbB/h55H3s2Dgu3F22xe+JVi3Gbz+h9MNm2fip1BAQBAxgwK8urkT46ka6gld/Wtk+EFJ3b2b3gNCv6tF53UH6753mT6Yy+5dRd23idXOjmDAgCAjBkU5FP8NMFy3s7u7p/MhL9/X2cvirdnUNDcm8/eEu59bCb98ZfMvRtmmrZJxc2gAAAgYwYF+fTWD25J105Loj48O/9JhnjuerpNnZpBQevisOrUS0eW7RoZbzyzcy6Y2ekZFAAAZMygIJ8uv3EiXTctqqmZuXDRNePhwKM68zoEO8qgYMc9+5h6+PjXx8PMEn/A5RNfn2jaFhUzgwIAgIwZFOTTUn7s+7ofTIaXrO/e29IZFOxc8daFN949le6SRXPnw9NN26BiZlAAAJAxg4J8ir/hX2wPbpyZP8Uh/d7dlkHBrrXqvKHw8ObF/3jBxNRc0/dWMTMoAADImEFBHh1wZD1dM7XV8PhcOO2y0bD36ubv3Y0ZFOx68bnz3itHw8jE4g60OvWWnJ2WQQEAQMYMCvLoL45ZnEHB7GwIl35jIhx0rMXXz2dQsPs957j++etpxOfWYoj/FtLvqeJlUAAAkDGDgjxajEHBt++ZCq98V/deh+CJev6J/eH6OyfT3fWEvnb7ZDj4hP6mr9Ptvfr0wXDr/dPp7lowg4I8MigAAMiYQUEetXNQsHnLbFhzwVDT9+j29ltXD//0xbH58+B31fjkXDj782Nh3zXNX7fbO+ojw6E21L6PFxgU5JFBAQBAxgwK8qidg4Ivfmdr09fv9o7+6HB4fGDhF+N7tLYtrL3QECYtPufaxaAgjwwKAAAyZlCQRwYFi1P8ePxtD7T/4/HxtI6/fbfTOrZnUNB9GRQAAGTMoCCPDAra2/OO7w9X3LQ1zO76WQY7bf5Ckd90ociYQUH3ZVAAAJAxg4I8MihoT/usqYUzrxwNo4t8C7+fF289efpnuvvWkwYF3ZdBAQBAxgwK8sigYOFVzh8Kj1QXfh2C3fXgxpnw1g92560UDQq6L4MCAICMGRTkkUHB7veKUwfCTT+cSnfDsrn+B5PhJeu76/oFBgXdl0EBAEDGDAryyKBg14v77JPXTYRt7bszX9tMbwvhomvGw4FHdcei16Cg+zIoAADImEFBHhkU7HwrV9fCuz89EgZHCzghSNSHZ8PJnxwJpb7mn6OTMijovgwKAAAyZlCQRwYFO9dbztkS7tswk/7IhXf3T2bCoWd17vULDAq6L4MCAICMGRTkkUHBjovn/F/7/cn0R83O1bdOhhec2N/08+WeQUH3ZVAAAJAxg4I8Miho3QFH1sNHvzYepqaX7naHi23r1Fw470tjYf91nbMgNijovgwKAAAyZlCQRwYFv1g8p/8dHx8JtaHiX4dgd20c2BaO+efhpp89xwwKui+DAgCAjBkU5JFBwb/1d2duCXc9Mp3+WB3rtgemw2vfM9i0H3LKoKD7MigAAMiYQUEeGRTUwvNP7A9f+m77Fpw5mZ0L4cqbt4aDT8jz+gUGBd2XQQEAQMYMCvKomwcF+62rh3/64liYmOqc6xDsrtGJufC+z46GfdY076ciZ1DQfRkUAABkzKAgj7p1UHD0R4fD4wPb0h+h6z1S3RYq5w817a+iZlDQfRkUAABkzKAgj7ptUPDq0wfnz81nx27+0VR4xakDTfuvaBkUdF8GBQAAGTMoyKNuGRQ87/j+cMVNW+fPyWfnbJsN4ZPXTRR6AW1Q0H0ZFAAAZMygII+6ZVBwwsXDYctY597ycLHE20SuvbC4pyIYFHRfBgUAABkzKMijbhkUxOLPesn1E/O/KWfHpmbmwke/Nh4OPKrYi2eDgu7LoAAAIGMGBXnUTYOC7cVz72/64VS6+fzMv3x/MrxkffGvTxAzKOi+DAoAADJmUJBH3Tgo2F68un+8yj8/9cDjM+Et52xp2k9FzqCg+zIoAADImEFBHnXzoCC2z5paOPPK0TA60b1XOYzXbjjtstGwcnXz/il6BgXdl0EBAEDGDAryqNsHBdvrxrsixGs1fOr6iXDQsfkukA0Kui+DAgCAjBkU5JFBwS/26tMHw20PTKc/Wsf51o+mwivflcd1CHaUQUH3ZVAAAJAxg4I86sRBwX7r6qHU1/y/70pHf3Q4PD7Qedcv+EltW+j70MJudxj37TOPLMai2qCg+zIoAADImEFBHnXioCBekO+Oh6bD684YbPpvu1IcOPzTF8fCxFT+5yOMbZ0L7//cWNh3TfPPuSv9/fu2hLsfKc5FDw0Kui+DAgCAjBkU5FGnDgqiucb6/nPf2hoOPqG/6c/sSs8/sT986bvtW5AupcXaBwYFWq4MCgAAMmZQkEedPCjYLv42/X2fHZ2/w0H6Z3elN545GO56JJ/rF3zvwfZ8quKDX2j+VIVBgZYrgwIAgIwZFORRNwwKtnukui2Uz1v4+fknfnwk1IZm0y9fGJsHZ8NxFw0v+DoNR31kOGzob32dBoMCLVcGBQAAGTMoyKNuGhRsd+PdU+Hlpyzsiv8HHFkPH/naeJiaLs71CyYb2/Khq8fC/usWtuB91emD4db7d/zJCYMCLVcGBQAAGTMoyKNuHBREM9tCuPja8fCsoxe2OPzrkwfCtd+fTL/8kvvq7ZPhhSct7DoEzzmuP1x+40SY3YkPSxgUaLkyKAAAyJhBQR5166Bgu4GR2XDyJ0fCygV+TP8tH9gS7tswk375RXfPozPhH96/sEX73qtr4YzLR8Pw+M5/OsKgQMuVQQEAQMYMCvKo2wcF2939k5n5W/+lX2tXisOGd396JAyO7sSv5BcoDjjeecnCBxxHnDsUHtrU+joEO2JQoOXKoAAAIGMGBXlkUPCLvvzdrfO3Aky/5q707MY+/eR1E/OnN7Rb/Jof+5eFnzLxslMGwjfunEq//E4zKNByZVAAAJAxg4I8MihoNj45N39LwP3WLmzh+IpTB8JNP9z9xXjqm3dNzS/w0++zKx14VH3+2gzTCxxiGBRouTIoAADImEFBHhkUPLF4a8B1Hx5u+vq7WuX8ofDw5t1fmcdTA1Yt8LaO8RSFeC2GeMpCOxgUaLkyKAAAyJhBQR4ZFDy5W+6ZCn/77oX9Jj9eMPDMK0fDyMTOXzAw/tkzrhid/7vp19uV/uGsLfPXYGgngwItVwYFAAAZMyjII4OCnRNvGXjpNybCQccubDH53J24BWH8b/HPxNsVpn9/V3rBif3hK7cuzq0bDQq0XBkUAABkzKAgjwwKds2Wsdlw2mWjYeUCf8v/6tMHw633T6dffv5/e1Xjv6V/flfaf109nPelsbB1auc/vbCrDAq0XBkUAABkzKAgjwwKds99G2bCm89e+GL5qI8Mz18LIXZkG66HcMxHh8PjA7t/PYSdZVCg5cqgAAAgYwYFeWRQsDDXfG8yvOikhZ0isN+6+nzp/74rxU8o3PZA8ycUFotBgZYrgwIAgIwZFOSRQcHCTU3PhQuuHp//yH+6LYvd847vD1fctDXMLt5ZBi0ZFGi5MigAAMiYQUEeGRS0z6bB2XDcRQs/fWBn2p27KLSTQYGWK4MCAICMGRTkkUFB+93+4HR47XsWdkHCHbXqvKHw8ObFvw7BjhgUaLkyKAAAyJhBQR4ZFCyOeCpAPCUg3g4x3b7d7eWnDIQb7ppKv9WyMCjQcmVQAACQMYOCPDIoWFzx1ID3Xjk6f6pAup0727OOroePf308zCzvhwh+gUGBliuDAgCAjBkU5JFBwdJ4aNO2cMS5Q03buqNW9tXCKZ8aCQMjs+mXW3YGBVquDAoAADJmUJBHBgVL6/o7J8ML3/HkpyO88czBcM+jM+lfLwyDAi1XBgUAABkzKMgjg4Kld/InR5q2Oa2dC+DFYFCg5cqgAAAgYwYFeWRQsPQMCtpXO/eTQUEeGRQAAGTMoCCPDAqWnkFB+2rnfjIoyCODAgCAjBkU5JFBwdIzKGhf7dxPBgV5ZFAAAJAxg4I8MihYegYF7aud+8mgII8MCgAAMmZQkEcGBUvPoKB9tXM/GRTkkUEBAEDGDAryyKBg6RkUtK927ieDgjwyKAAAyJhBQR4ZFCw9g4L21c79ZFCQRwYFAAAZMyjII4OCpWdQ0L7auZ8MCvLIoAAAIGMGBXlkULD0DAraVzv3k0FBHhkUAABkzKAgjwwKlp5BQftq534yKMgjgwIAgIwZFOSRQcHSMyhoX+3cTwYFeWRQAACQMYOCPDIoWHoGBe2rnfvJoCCPDAoAADJmUJBHBgVLz6CgfbVzPxkU5JFBAQBAxgwK8sigYOl1wqCgcv5Q0zYvR+3cTwYFeWRQAACQMYOCPOq0QcEhpw2G2x6YTjetUDphUDA5PRfO/eJY2G/t8i6u27mfDAryyKAAACBjBgV51CmDgmcdXQ+fvG4izM6mW1U8nTAo2O7R2rbQ96Hl+3RBO/eTQUEeGRQAAGTMoCCPch8UlPpq4aRPjISBkQwmBD/TSYOC7b5511R46TsHmn6Oxa6d+8mgII8MCgAAMmZQkEc5Dwpe+57BcMdDxT7NoJVOHBREUzNz4cNfGQ/PPHLpFtzt3E8GBXlkUAAAkDGDgjzKcVBw0LH18JkbJsLsXLoFeejUQcF2mwZnw1EfGW76mRajdu4ng4I8MigAAMiYQUEe5TQoWNlXC6deOhK2jOVzmkErnT4o2O6We6fC37xrcU9HaOd+MijII4MCAICMGRTkUS6DgjeeORjufmQm/ZZZ6pZBQTSzLYSPf308HHjU4izC27mfDAryyKAAACBjBgV5VPRBwXOP6w+f+9bWMJfpaQatdNOgYLva0Gw44WPD8xefTH/WhdTO/WRQkEcGBQAAGTMoyKOiDgpWrq6F93xmNAyPd9CE4Ge6cVCw3e0PTodXnz7Y9PPubu3cTwYFeWRQAACQMYOCPCrioOAf3r8l3LuhM04zaCXHQUE7Lxw5OxvCpd+caMvCvJ37qR3bo8XPoAAAIGMGBXlUpEHBwSf0hy99t30Lvyh+vTh4uPlHU+l/WjY5DQqmt4Vw8bXj83eaOPvzY2F8sn0Tg8HR2fDOS0YWdDpCO/eTQUEeGRQAAGTMoCCPijAo2Ht1LZz12dEwtrV9i9D4iYR/OGvLL3yfvg8NhZ/UtqV/dMnlMii4/s7J8LJTfvGuBS84sT985bbJ9I8uSLxI5Rveu3unI7RzPxkU5JFBAQBAxgwK8mi5BwWHnbMlPLixfacZxGsanHbZ6Pw1DtLvFdt3Ta3tvxnfVUUfFDy0aVs4/Nyhpm36+d7ygfY+bvFilVfevHX+4pXp99pR7dxPBgV5ZFAAAJAxg4I8Wq5BQfzN9Ndub99vpuNC84qbdn6hGU9z+MIty3M3haIOCuKQ5R8vH53/hEe6Pa2Kf+69V7b3kyBPNuhJa+d+MijII4MCAICMGRTk0VIPCuJv9M/5wliYmGrf4vLOh6fD68/YvY+uv/G9g/N/fykVbVAQLy74mRsm5q9DkG7HzhSHLu3e3lanjrSqnd/XoCCPDAoAADJmUJBHSzkoKJ83FB6ptu8aAQMjs2H9Ai+GF4t//8SPj4Ta0Gz6LRZFkQYF37lvKhxy2u4NWdIOPav9d6uIF6OMg4j0e22vnfvJoCCPDAoAADJmUJBHSzEoePHJA+G6H7TvNIP4G/BPXT8Rnt3mhd2BR9XDRdeMh6mZ9n3aoZUiDAo29G8L6z483PR9F1o8ZSCeOhBPIWiXeD2JeLHLVqdEtHM/GRTkkUEBAEDGDAryaDEHBfutq4fzvzwWpqbbt2i87YHptv0G/Il6yfqB+Sv+L5blHBTERXc89WO/tYu7KI7Xivjct9p7DYh48cS3fvAXT0do534yKMgjgwIAgIwZFOTRYg0K1lwwNP9b63apDs2G4y9q/2/Ad9Th/zQ0fweAdluOQUFcsMev+Zdvf+KP8S9G8RoQ8faH7RQvgvnCk376c7RzPxkU5JFBAQBAxgwK8qjdg4KXvnMg3PTDqfQ/7baZxjr9omvHwwFHLs8iLn7c/YwrRsPIRPt+Nb7Ug4If/Hg6vPHMxf0Uxo5a2VcLp146EgZH23cNiK1TP/1kxFfbeOcMg4I8MigAAMiYQUEetXNQEH/rP93GX8B/60dT4eWnDDRt83IUP0p/+Y0TYbYN84KlGhTEizO+/WPDC77YY7uKd1WId1doxz5cDAYFeWRQAACQMYOCPGrnoKBdHh/YFtZduLSnGexsr3nPYLj9wYXdTnGxBwXxmhAf/uryfQrjyXptYx/e8dDC9uFiMCjII4MCAICMGRTkUZEGBXGBGy9+uP+64i/Yjv3n4bBpcPc+Sr+Yg4Jrvz8Z/vrkYnwKY0fFTzmc9ImR+VtcFoVBQR4ZFAAAZMygII+KMiiIt0+MdxtIt6/IxYHGh64eC5O7eFeHxRgU3LdhJrzlA794R4AcetbR9fDJ6ybmb3m53AwK8sigAAAgYwYFebTcg4JHqtvCqvOGmrYrp150Un+45ns7f1G9dg4K4gUC3/3pkbBydfPXyKl4y8vb7l/e0xEMCvLIoAAAIGMGBXm0XIOC8cm5cM5VY2HfNc3blGtvPnvL/G/2n0w7BgXbZsP8b+I7bXEbb4EZL8K4HDptX3ZqBgUAABkzKMij5RgUfOW2yfCCE/ubtqUTircCjL/h3zL2xIvdhQ4Kbv7RVHjFqXmdprErHXhUff6WmPHWmEvJoCCPDAoAADJmUJBHSzkoeODxPM+j353irQA/dX3rc+93d1AQT9OonJ/3aRq70t+8ayB8+56pdDcsGoOCPDIoAADImEFBHi3FoGBkYi6cccVo2Dvz8+h3p799d/Nid1cHBaON/XfWZ0fDPh10msaudNRHdv8OE7vCoCCPDAoAADJmUJBHBxy5+IOC+FH89Pt2W+suHA4b+n/6WfqdHRTMzYVw5c1bw8EndOZpGjtbHDCd/fmx5FnVfvHfQvq9VbwMCgAAMmZQkE/TS3Au+K33T4dXnz7Y9L27qf3W1sM5XxgLR390uOm/pcXhymvf0937K3b4uUPhwY1PfoHIhZqamWv63ipmBgUAABkzKMineO2ApRDP17/8xonwvOO7+zfkevJe+s6BcP2dO3/LyYW697GZpm1QMTMoAADImEFBPl1xU/OF8xZTvGbBmVd27zn3euLiHQ8uvnZ8ST7l8vPiACvdFhUzgwIAgIwZFORT+byhdN20JLrtKv564uJtJddfMhIGRhb/ooWtvPWD3XE3jk7IoAAAIGMGBfm0cnUtbF6Cq8o/kZt+OBVecepA03apO/qHs7aEHz26NKe/tPJYfdv8oCLdLhUzgwIAgIwZFOTVuy4dSddPS2rbbAiXXD/hFnVd1Avf0R++ctvSXYfgiezMXShUnAwKAAAyZlCQV/FTBXf8eDpdQy25LWOz4bTLRue3J91GdUb7r6uH8788Fian59KHf8nddv+0TxNklkEBAEDGDAryK15pPi7UiyDeieGwc5w33kmVGgvy4y4aDpuW8TSXnxevh/Dik53yklsGBQAAGTMoyLM3njkYxrYu/296t7vuB5PhJest5nLvtf84GL734PJ/YmW70Ym58LozBpu2U8XPoAAAIGMGBfl2yGmDYePAEt+fbgemZubCRdeMz986L91WFbuDT+gPn/vW1jBXnNlT2NC/LbzyXYZPuWZQAACQMYOCvHvW0fX5e8sXaYHXPzw7f+E555QXv33X1ML7PzdWqE+nxOdyfE7H53a6vcongwIAgIwZFHRGb3jvYCEucvjzfviTmflb6qXbqmK0+oKh8JNacT6REsXncHwup9uq/DIoAADImEFB5xQvQnfCxcNh85ZiXIRuu3hrvXiLvXR7tTzFj/N/60dT6cO0rOJzNj5343M43V7lmUEBAEDGDAo6r2ceWQ8XXD0epgpwW7vt4i32PnT12Pwt99Lt1dJ00LH18KnrJ8JsgeZI8Tkan6vxOZtur/LOoAAAIGMGBZ3bi07qD1+7fTJdmy2rzYOz4fiL/OZ4Kdt7dS2cdtloGCrILTW3i8/N+BxNt1edkUEBAEDGDAo6vze9f0u497GZdJ22rO54aDq83m3vFr3DztkSHni8WI99fC7G52S6reqsDAoAADJmUNAdxTsQnPKpkTAwUpzfKser21/17a3hL9/ut8rt7iXrB8J1PyjWp0nicy8+B90NozsyKAAAyJhBQXcVbzn3sX8ZDzMFutj9+ORcOOeqsbDfWuepL7QDj6qHi64ZD1Mzxbk+RXyuxeec2x12VwYFAAAZMyjozl52ykD45l3FuvL9hv5tYd2Hh5u2VU9evObDSZ8YCfXh4nxiJIrPsfhcS7dXnZ9BAQBAxgwKursjzh0KD20q0McLGr5733R41emuX7Cz/f37toS7HynWdQjicyo+t9JtVfdkUAAAkDGDAsWr4p9x+WgYHi/Ox9XjLfwuv3EiPOc41y94ol5wYn/48ne3prtuWcXnUHwuxedUur3qrgwKAAAyZlCg7R10bD185oaJ+UV6UYxMzIX3Xmnh+fPtv64ezv3iWNg6VazBTnzuxOdQur3qzgwKAAAyZlCgtENOGwy33Fus6xc8vHlbKJ/no+zHfHQ4PD5QrFNF4nMlPmfSbVV3Z1AAAJAxgwI9UfHCgo/Vi7UovemHU+EVp3bfxfFe857BcNsD0+nuWFbxueHik3qiDAoAADJmUKAdFW9ZGG9dGG9hWBTxdnufvG4i/MUxnf8x9+cd3x+uvHlrmC3O7nc7S+1UBgUAABkzKNDO9Jdv7w9XfXtrmCvQgnVwdDa8+9MjYWUHXr9gnzW18L7PjobRieLs8PjYx+dAfC6k2yulGRQAAGTMoEC70uvPGAx3PFSsj8Df//hMeMs5W5q2Ndcq5w+FR6rFOuUjPubxsU+3VXqiDAoAADJmUKBdrdRXCydcPBw2Dxbo9ggNX79jMrxkfb7XL4jXXojXYCiS+BjHxzo+5un2SjvKoAAAIGMGBdrdnnlkPVxw9XiYnC7Ox+OnZubCRdeMhwOPyuf8+XithXjNhW0FmrvExzQ+tvExTrdX2pkMCgAAMmZQoIX2opP6w1dvn0zXmsuqPjwbTvrESKF/Ex6vrRCvsRCvtVAk8bGMj2m6vdKuZFAAAJAxgwK1qze9f0u459GZdN25rO7+yUw49KziXb/gLR/YEu7bUKx9FR+7+Bim2yrtTgYFAAAZMyhQO1vZVwvvvGQkDIwU67fkX7l1MrzwHcv/W/K/PnkgXPv9Yn36Ij5W8TGLj126vdLuZlAAAJAxgwItRs86uh4uvnY8zBTo4v1bp+bC+V8eC/uvW/rz7g84sh4+8rXxMFWg6znExyY+RvGxSrdXWmgGBQAAGTMo0GL2slMGwjfuLNaV/DcNzobjLlqaK/nH73Hix0dCbahYn7CIj0l8bNLtldqVQQEAQMYMCrQUHX7uUHhoU4E+XtDw/Yemw+vOGGza1nb1xjMHw50PT6ffdlnFxyA+Fum2Su3OoAAAIGMGBVqq9l5dC/94+WgYHi/Ox+/nGpvy+W9vDQef0L7rFzz/xP7wxe9sTb/Vsor7PO77+Bik2ystRgYFAAAZMyjQUnfQsfVw2Q0TYbZAn8Yfn5wL51w1FvZd07y9O9t+6+rhg18Ym/9aRRH3cdzXcZ+n2ystZgYFAAAZ6y3X3pUe4ElL0SGnDYZb7i3W9Qseq28L6z483LStT9aRjb+zob9Yp1bEfRv3cbqt0tJU/VD6fgMAQCZ6+6rrmw/wpKVr3YXD8wv0ItnZRfarTh8Mt95frOsQzA87Ltz1YYfU1vpqZ6fvNwAAZKK3XF/bdIAnLXHxI//xo/9F+9j+Z26YCM85rvn6BfF/u/zGzjt9Qmpj707fbwAAyESpr/7mFgd40rIULyp41be3zl9ksCjihQDPuOKnFwKMvffK0TAyUZwNjPsq7rN2XpBRWmg9ldqx6fsNAACZ6CnXXpge4EnL3evPGAx3PFSsj/T/ePO2+Yok7qO4r9L9Jy175eob0vcbAAAysWJNbUXTAZ5UgEp9tXDCxcNh82CBPt9fEHGfxH0T91G636Qi1FOpHpy+3wAAkImeyqbfSw/wpCL1zCPr4YKrx8PkdHE+7r9c4j6I+yLuk3Q/SUWqVO7/s/T9BgCAjDQO6gbTgzypaL3opP7w1dsn07Vz14g/e9wH6X6RCti2PdeHX03fawAAyEjjoO6GFgd6UiF70/u3hHsenUnX0R0r/qzxZ073g1TYyrUfpe8zAABkprdS/VDTgZ5U4Fb21cI7LxkJAyOde/2C+LPFnzH+rOnPLxW5UqV2efo+AwBAZkqV6uHpgZ6UQ886uh4uvnY8TBfrZgQLEn+W+DPFny39eaUcKpXr70jfZwAAyEypvPnp6YGelFMvO2UgXH9n/tcviD9D/FnSn0/KqVJf/Tnp+wwAALlZH57aOLjbkh7sSbl1+LlD4cGN+V2/IG5z3Pb055EybKZ02MbfTN9mAADIUOPg7kstDvik7Np7dS285zOjYXi8+LdTjNsYtzVuc/pzSFlWrt+Svr8AAJCpxgFeuemAT8q4g46th09/cyLMFvB6h3Gb4rbFbUy3W8q6vur69P0FAIBMlVYP/nHTAZ/UAR1y2mC45Z6pdK2+bOK2xG1Kt1PqhEqr6r3p+wsAABkrlWvfTw/6pE5p7YVD4bH68t0eIX7vuA3pdkmdUqlSe2yPPcJT0vcWAAAy1ttXe3t64Cd1UvuuqYUPXDUWxieX7voF8XvF7xm/d7o9UifVU6l9IH1fAQAgcz87/WAuPfiTOq2DT+gPn//21jC3iPOC+LXj94jfK/3+Uie2slLrSd9XAADoAL2V+rXpwZ/Uqb3ujMFwx0PT6Rp/weLXjF87/X5SB3dH+n4CAECH6Omrv6bFAaDUsZX6auH4i4bD5sGF3x4hfo34teLXTL+P1MmVKrW+9P0EAIAOsef68KvxglTpQaDU6e2/rh4uuHo8TE7v+vkI8e/Evxu/Rvp1pS5oaN/KwL9P308AAOggpb7qUS0OBKWu6LnH9YeLrhkP9eEn/4RB/DPxz8a/k34dqXuqn5G+jwAA0GHib4YaB3/DzQeDUve0sq8WDj1rSzjrs6PhszdvDdd+b3K++P/H/y3+t/hn0r8ndVnTz1jb/4fp+wgAAB2ot6+6vsUBoSRJ/1pPpX5e+v4BAECH2vOI2m81DgJr6UGhJEk/a6y0pv5f0/cPAAA6WLyKdYsDQ0mSQm+59q70fQMAgA4X74DQOBD8UdPBoSSp29voTgcAAF2qZ3Xt2S0OECVJXVxPpfa36fsFAABdpLev9s/pQaIkqWu7On2fAACgy+yzasPvNg4MH29xsChJ6q6GSqsH/zh9nwAAoAv19G1+XuMAca7FQaMkqUvq6au/Jn1/AACgi/X21f8xPWiUJHVHpUrtY+n7AgAAXa50WPiVxsHiDenBoySpsytV6ncfcEz9t9P3BQAA2GOvt23+/d5K9SfpQaQkqTPrqVQH9l5b/ZP0/QAAAP7VijW1FY2Dx/H0YFKS1HFt6y33Pzd9HwAAgCY95doLGweQ0y0OKiVJHVJPpfp36es/AAA8od5y7dWNA8nZ9MBSkpR/pUqtL33dBwCAJ9Vbqb+l120TJanTOiF9vQcAgJ3WW6m/vjeex9p8oClJyqxSpX5k+joPAAC7rKdcf2lvpTqVHnBKkrJpNn5KLH19BwCA3VZaXTuwcaBZbXHwKUkqdqMr+ja/LH1dBwCABetZtfG/Nw4472hxECpJKmYPl8qbn56+ngMAQNvsddTmf1eqVD/V4mBUklSsvlY6cuN/Tl/HAQBgUfSWq29oHISOtjgwlSQta9WpUl/1qD32CE9JX7sBAGBRlSrV/9U4KL2h+SBVkrRM3bWyUutJX68BAGAJhaeU+upvbhycDrY4YJUkLU0TpXLtuNJh4VfSV2kAAFgWPZVNv9c4UL2o0VyLA1hJ0mLVV/viijWb/kf6ugwAAIWwstK/T+PA9VtNB7KSpPZWrv2ot1x9fvo6DAAABRSe0lupv75xIPt404GtJGmhbSlVan0HrQ+/nL76AgBAof30Voq1UxsHtVtbHOhKknatbT2V+nn7rNrwu+nrLQAAZCWeO1uq1C5vcdArSdqpql8vlTc/PX19BQCArPVU6n/ROOC9o/kAWJLUqlKl9uNSufry9PUUAAA6x/rw1N5K/a2NA+BaekAsSfrXRkt9teOfVnng19KXUQAA6Egr1mz5nd6+6lmNg+GZFgfIktStzfWUaxeX1tT/a/q6CQAAXWHl6vqfNg6Mv9LiYFmSuq1vxVvMpq+TAADQlXrKtReWKrX7Whw4S1JnV65tiLeUjbeWTV8bAQCgq5UOC7/SW66vbRw4DzUdSEtS57W1p696SryVbPp6CAAA/Jy93rb593vL1QsaB9GzLQ6sJakTuizeOjZ9/QMAAHZgxZrait5y7ZstDrAlKctK5dr3e1bXnp2+3gEAALugcWB9SG+l/kh6wC1JGVVrvI69Jd4iNn2NAwAAdsP+ax/7jZ5K7cTGwfZ4iwNw6f9v3/5DNLkPOo7fXZPYNI1NbRuxKSUNsSGc2d2Z2fw4D+mqoIZKKdWjiloOwcuPne/srglRa9EVNUEoNQilhoIEaxENkRYsKSLaFvwVgtRECanSK6a53fnO5i5JTXIml3v8TgxIvzuml8vu3vM8+3rBm4Tkbvf5MTPM54+RxrUXitB+vDpy/C35dQ0AANgCsysblxVN+9mBm3FJGquKOn5hdrF7b34dAwAAtkGx2B5IN+IP5jfmkjQGPVo28Sfy6xYAALDdVkf70g354dTawI26JO10J8rQLS+sjs7LL1cAAMAOOnhHd3HRxLvK0P73wI27JG13p6qm+1R127G359cnAADgHLp2pb2iCt3nBm7iJWm7+ptyqZ3Jr0cAAMAYKZr1H003748M3NBL0pZUhfj1MrQfyq8/AADAmOqfES6buFiE9sn8Bl+SXkffqpr4awuHj74xv+4AAAAT4MDK099T1fEP0s39qYEbfkk644o63lvU3Tvz6wwAADCBZhfX9hdN/Kv8xl+SzqB/mA8b1+XXFQAAYAoUdfeBdNP/HwNDQJLynijr9uf37Bntza8lAADAFNm/OrqgCPFX0gh4ZmAYSNLzZR1/Z+b29Yvy6wcAADDFrl9qv7ds4h+lUXB6YChI2oVVId43t7x2eX69AAAAdpGy6ao0EP4uHwySdlVfLUL3vvz6AAAA7FqjvWkk/GwV4uMDA0LS9BbL0N20Z3W0L78qAAAA7KmOHHtTEdrfKvtnlDcPCknT0wtl036iOnL8Lfl1AAAAYJNq6fi705D4s4FxIWnCK+r4hfml7qr8vAcAAPiO0qj4odQ/50ND0kT2aFHHG/PzHAAA4LVZHe0rQ/dLaWS0A8ND0vh3Ip3Dy9WR0fn56Q0AAHDW+meZi9B+vOyfbd48RCSNXy+Vof3DIqy9Iz+fAQAAtszsYvfeNED+cmCUSBqfvlQutTP5+QsAALBtyrr98TRGHh0YKJLOXUeLuv2p/HwFAADYEQuro/P6Z5/Ll5+B3jRYJO1c/5X66MLho2/Mz1MAAIAdV9127O1V032qfPmZ6E0DRtK21v1xUXfvzM9LAACAc65/JroI8W83DxlJW17d/WO1tH59fh4CAACMnTK0H0pD5uimYSNpK3qiaNpf2LNntDc/9wAAAMZW/6x0GjQfLf/32el86Eh67T2f+t2Z29cvys83AACAidE/O90/Qz0weiSdYVWI983U6+/Jzy8AAICJVYb1G/pnqvMBJOlV+5f5ulvIzycAAIApMdpbhPYjafw8MTCIJP1fXRm6mw4dGr0hP4sAAACmzv5b45uLOt6ZxtDJgYEk7eZeTP3+3PKJS/LzBgAAYOr1z1ynUXT/wFiSdmMPzC91V+XnCQAAwK5TNd0Pp5H08MBwkqa+KsTHijremJ8XAAAAu1r/LHYV2lvKl5/N3jympCnsqbLuVqojo/Pz8wEAAIBXXHPLU28tm3h3GlGnBoaVNA29VNbtPUVYe0d+/AMAAPD/KJc3rk6D6osDI0ua5L5UhHY2P94BAAA4Q+Vi95NpXH1tYHBJk9TRIsSfzo9vAAAAzsL+1dEFVdPensbW0wMDTBrnni2b+OsHVh6/MD+uAQAAeJ1mbl6/tAjx02l8nR4YZNJ41XSfmV3ZuCw/jgEAANhi1WJXpiH2lU3DTBqDitD+UxnWb8iPWwAAALbVaG9Zxw+nYfaf+VCTzlHHitB+pD8286MVAACAHdI/+13W3W+mkfbcwHCTdqKTRR3v3H9rfHN+fAIAAHCOzIQn31XW8U8HRpy0nd0/U6+/Jz8eAQAAGBPzdXswjbeHBgadtJU9PF93C/nxBwAAwDhaHe0rQvzFNObagYEnvZ66om5vPnRo9Ib8sAMAAGDMXR+e/O6y6X4vjbsXBgaf9Fp6sWzi3XPLJy7JjzMAAAAmTHlrvLIM7ecHxp90Jj1QLm9cnR9XAAAATLgqtD9WhvbfBoagtKkqxMeq0L0/P44AAACYIguro/OKJoY0BI/nw1B6paeLpvvl/aujC/LjBwAAgCl13eI331Y28ZNpFJ4aGIranZ0u6/aemZvXL82PFwAAAHaJql6/pgzdXw+MRu2m6vjlueU4lx8fAAAA7FJV3X6wCvHrmwakprzuG1UdD+XHAwAAAOy5Mvz7d6XR+KtpQH5r86DUlPVsEeLHDqw8fmF+HAAAAMC3qZa77yvqeG/ZP7O+eWBq4mv/ZHZl47L8ewcAAIBXNR82rkvD8u83D01NaA+WYf2G/HsGAACA12C0twzdz6WR+cTA8NRkdCx1uP8u828XAAAAzsrM7esXVSH+dhqczw8MUY1nJ4sm3nXwju7i/PsEAACALTG3vHZ5FeJ9A6NU41Qd/+LalfaK/PsDAACAbVGE7n1pkH5100DVue7hst74kfz7AgAAgO23OtpXhu6mNE7jwGDVzrZRhfaWhdXRefnXBAAAADtqbvnEJWXTfiKN1RcHBqy2t1NlE+++5pan3pp/LwAAAHBOzS91V6Xh+sDAmNX29MVyeePq/HsAAACAsVLU8cYqxMcGhq22pq9VoXt//rkDAADA2KqOjM4v624ljdqnBoauzq6nq9Ddtn91dEH+eQMAAMBEmLl5/dKybu9JI/elgeGrM+t0EeKn+88y/3wBAABgIs0tx7myjl8eGMF69b4yH2KRf54AAAAwFao6HipD942BQaxvK31Gdfxw/vkBAADA1Dmw8viFRYgfS4P42c0Dedf3bBW63+g/o/xzAwAAgKk2u7JxWdG0nx0Yy7uy/rOYCU++K/+cAAAAYFcpFtsDaSg/mA/nXdSDc037g/nnAgAAALvX6mhfGsyHU2sDQ3pa69/r4f695x8HAAAAkBy8o7u4aOJdaUCfHBjW09LJ/j327zV//wAAAMCAaun4u4s63ptG9emBoT2pne7fU//e8vcLAAAAnIHZxbX9aWDf34/sgeE9KfWv/f7+veTvDwAAADgL5a3xyrKJn0yD+7mBIT6uPffya06vPX8/AAAAwBa4bvGbb6tCbNIIf2hgmI9LD/WvsX+t+esHAAAAtsl8s/4DRR3vTMP8kYGxvtM90r+W/jXlrxMAAADYYXPLa5ensV6XTfzz9M9jA0N+qzv2yu+q+9+dvx4AAABgjFy70l5RNN3PlE27WoV4XxW6f02j/pmBwf+deqb/u/3P6H9W/zP7n53/PgAAAGACVUeOvWmuid8/X7cH5+tuoai7D1R1+8G+/t/7/9b/v/7P9H82//sAAAAAAAAAAAAAAAAAAAAAAAAAAAAAAAAAAAAAAAAAAAAAAAAAAAAAAAAAAAAAAAAAAAAAAAAAAAAAAAAAAAAAAAAAAAAAAAAAAAAAAAAAAAAAAAAAAAAAAAAAAAAAAAAAAAAAAAAAAAAAAAAAAAAAAAAAAAAAAAAAAAAAAAAAAAAAAAAAAAAAAAAAAAAAAAAAAAAAAAAAAAAAAAAAAAAAAAAAAAAAAAAAAAAAAAAAAAAAAAAAAAAAAAAAAAAAAAAAAAAAAAAAAAAAAAAAAAAAAAAAAAAAAAAAAAAAAAAAAAAAAAAAAAAAAAAAAAAAAAAAAAAAAAAAAAAAAAAAAAAAAAAAAAAAAAAAAAAAAAAAAAAAAAAAAAAAAAAAAAAAAAAAAAAAAAAAAAAAAAAAAAAAAAAAAAAAAAAAAAAAAAAAAAAAAAAAAAAAAAAAAAAAAAAAAAAAAAAAAAAAAAAAAAAAAAAAAAAAAAAAAAAAAAAAAAAAAAAAAAAAAAAAAAAAAAAAAAAAAAAAAAAAAAAAAAAAAAAAAAAAAAAAAAAAAAAAAAAAAAAAAAAAAAAAAAAAAAAAAAAAAAAAAAAAAAAAAAAAAAAAAAAAAAAAAAAAAAAAAAAAAAAAAAAAAAAAAAAAAAAAAAAAAAAAAAAAAAAAAAAAAAAAAAAAAAAAAAAAAAAAAAAAAAAAAAAAAAAAAAAAAAAAAAAAAAAAAAAAAAAAAAAAAAAAAAAAAAAAAAAAAAAAAAAAAAAAAAAAAAAAAAAAAAAAAAAAAAAAAAAAAAAAAAAAAAAAAAAAAAAAAAAAAAAAAAAAAAAAAAAAAAAAAAAAAAAAAAAAAAAAAAAAAAAAAAAAAAAAAAAAAAAAAAAAAAAAjJX/AbX/7pYsKojwAAAAAElFTkSuQmCC;" vertex="1" parent="1">
          <mxGeometry x="-11.87" y="90" width="251.87" height="190" as="geometry" />
        </mxCell>
        <mxCell id="pS3SIrE1LRcRS9kYWRk5-24" value="" style="group;fillColor=none;strokeColor=#36393d;" connectable="0" vertex="1" parent="1">
          <mxGeometry x="90" y="324" width="1030" height="366" as="geometry" />
        </mxCell>
        <mxCell id="pS3SIrE1LRcRS9kYWRk5-5" value="" style="rounded=0;whiteSpace=wrap;html=1;" vertex="1" parent="pS3SIrE1LRcRS9kYWRk5-24">
          <mxGeometry width="1030" height="366" as="geometry" />
        </mxCell>
        <mxCell id="pS3SIrE1LRcRS9kYWRk5-10" value="" style="rounded=0;whiteSpace=wrap;html=1;fillColor=#ffcccc;strokeColor=#36393d;" vertex="1" parent="pS3SIrE1LRcRS9kYWRk5-24">
          <mxGeometry x="36.785714285714285" y="85.39999999999999" width="944.1666666666666" height="219.6" as="geometry" />
        </mxCell>
        <mxCell id="pS3SIrE1LRcRS9kYWRk5-1" value="" style="verticalLabelPosition=bottom;aspect=fixed;html=1;verticalAlign=top;strokeColor=none;shape=mxgraph.citrix.tower_server;rounded=0;shadow=0;comic=0;fontFamily=Verdana;" vertex="1" parent="pS3SIrE1LRcRS9kYWRk5-24">
          <mxGeometry x="196.19047619047618" y="158.6" width="67.32142857142858" height="88.03571428571429" as="geometry" />
        </mxCell>
        <mxCell id="pS3SIrE1LRcRS9kYWRk5-2" value="" style="verticalLabelPosition=bottom;aspect=fixed;html=1;verticalAlign=top;strokeColor=none;shape=mxgraph.citrix.tower_server;rounded=0;shadow=0;comic=0;fontFamily=Verdana;" vertex="1" parent="pS3SIrE1LRcRS9kYWRk5-24">
          <mxGeometry x="453.6904761904762" y="158.6" width="67.32142857142858" height="88.03571428571429" as="geometry" />
        </mxCell>
        <mxCell id="pS3SIrE1LRcRS9kYWRk5-3" value="" style="verticalLabelPosition=bottom;aspect=fixed;html=1;verticalAlign=top;strokeColor=none;shape=mxgraph.citrix.tower_server;rounded=0;shadow=0;comic=0;fontFamily=Verdana;" vertex="1" parent="pS3SIrE1LRcRS9kYWRk5-24">
          <mxGeometry x="698.9285714285714" y="158.6" width="67.32142857142858" height="88.03571428571429" as="geometry" />
        </mxCell>
        <mxCell id="pS3SIrE1LRcRS9kYWRk5-7" value="VPC&amp;nbsp;&amp;nbsp;&lt;span style=&quot;background-color: initial;&quot;&gt;CIDR Range: 10.10.0.0/28&lt;/span&gt;" style="text;html=1;align=left;verticalAlign=middle;whiteSpace=wrap;rounded=0;" vertex="1" parent="pS3SIrE1LRcRS9kYWRk5-24">
          <mxGeometry x="12.261904761904761" y="12.2" width="257.5" height="48.8" as="geometry" />
        </mxCell>
        <mxCell id="pS3SIrE1LRcRS9kYWRk5-12" value="Zone 1" style="text;html=1;align=center;verticalAlign=middle;whiteSpace=wrap;rounded=0;" vertex="1" parent="pS3SIrE1LRcRS9kYWRk5-24">
          <mxGeometry x="49.047619047619044" y="109.8" width="73.57142857142857" height="36.6" as="geometry" />
        </mxCell>
        <mxCell id="pS3SIrE1LRcRS9kYWRk5-31" value="e2-standard-4" style="text;html=1;align=center;verticalAlign=middle;whiteSpace=wrap;rounded=0;" vertex="1" parent="pS3SIrE1LRcRS9kYWRk5-24">
          <mxGeometry x="182.85" y="256" width="94" height="30" as="geometry" />
        </mxCell>
        <mxCell id="pS3SIrE1LRcRS9kYWRk5-32" value="e2-standard-4" style="text;html=1;align=center;verticalAlign=middle;whiteSpace=wrap;rounded=0;" vertex="1" parent="pS3SIrE1LRcRS9kYWRk5-24">
          <mxGeometry x="440.35" y="256" width="94" height="30" as="geometry" />
        </mxCell>
        <mxCell id="pS3SIrE1LRcRS9kYWRk5-33" value="e2-standard-4" style="text;html=1;align=center;verticalAlign=middle;whiteSpace=wrap;rounded=0;" vertex="1" parent="pS3SIrE1LRcRS9kYWRk5-24">
          <mxGeometry x="685.59" y="256" width="94" height="30" as="geometry" />
        </mxCell>
        <mxCell id="pS3SIrE1LRcRS9kYWRk5-28" value="GKE Regional Control Plane" style="text;html=1;align=left;verticalAlign=middle;whiteSpace=wrap;rounded=0;" vertex="1" parent="1">
          <mxGeometry x="190" y="169" width="260" height="30" as="geometry" />
        </mxCell>
        <mxCell id="pS3SIrE1LRcRS9kYWRk5-38" style="edgeStyle=orthogonalEdgeStyle;rounded=0;orthogonalLoop=1;jettySize=auto;html=1;entryX=0.5;entryY=0;entryDx=0;entryDy=0;" edge="1" parent="1" source="pS3SIrE1LRcRS9kYWRk5-34" target="pS3SIrE1LRcRS9kYWRk5-37">
          <mxGeometry relative="1" as="geometry" />
        </mxCell>
        <mxCell id="pS3SIrE1LRcRS9kYWRk5-50" value="Kubectl" style="edgeLabel;html=1;align=center;verticalAlign=middle;resizable=0;points=[];" connectable="0" vertex="1" parent="pS3SIrE1LRcRS9kYWRk5-38">
          <mxGeometry x="-0.0336" relative="1" as="geometry">
            <mxPoint x="-35" y="-30" as="offset" />
          </mxGeometry>
        </mxCell>
        <mxCell id="pS3SIrE1LRcRS9kYWRk5-34" value="" style="verticalLabelPosition=bottom;sketch=0;aspect=fixed;html=1;verticalAlign=top;strokeColor=none;align=center;outlineConnect=0;shape=mxgraph.citrix.globe;" vertex="1" parent="1">
          <mxGeometry x="70" y="-440" width="120" height="114.65" as="geometry" />
        </mxCell>
        <mxCell id="pS3SIrE1LRcRS9kYWRk5-35" value="Internet Ingress: Inbound traffic" style="text;html=1;align=center;verticalAlign=middle;whiteSpace=wrap;rounded=0;" vertex="1" parent="1">
          <mxGeometry x="-50" y="-397.67" width="100" height="30" as="geometry" />
        </mxCell>
        <mxCell id="pS3SIrE1LRcRS9kYWRk5-37" value="K8s API Server" style="whiteSpace=wrap;html=1;aspect=fixed;" vertex="1" parent="1">
          <mxGeometry x="380" y="60" width="110" height="110" as="geometry" />
        </mxCell>
        <mxCell id="pS3SIrE1LRcRS9kYWRk5-39" value="" style="edgeStyle=orthogonalEdgeStyle;rounded=0;orthogonalLoop=1;jettySize=auto;html=1;" edge="1" parent="1" source="pS3SIrE1LRcRS9kYWRk5-5" target="pS3SIrE1LRcRS9kYWRk5-29">
          <mxGeometry relative="1" as="geometry" />
        </mxCell>
        <mxCell id="pS3SIrE1LRcRS9kYWRk5-44" value="" style="group" connectable="0" vertex="1" parent="1">
          <mxGeometry x="940" y="80" width="325" height="130" as="geometry" />
        </mxCell>
        <mxCell id="pS3SIrE1LRcRS9kYWRk5-29" value="" style="rounded=0;whiteSpace=wrap;html=1;" vertex="1" parent="pS3SIrE1LRcRS9kYWRk5-44">
          <mxGeometry width="325" height="130" as="geometry" />
        </mxCell>
        <mxCell id="pS3SIrE1LRcRS9kYWRk5-17" value="NAT Gateway" style="text;html=1;align=center;verticalAlign=middle;whiteSpace=wrap;rounded=0;" vertex="1" parent="pS3SIrE1LRcRS9kYWRk5-44">
          <mxGeometry x="144" y="50" width="81" height="30" as="geometry" />
        </mxCell>
        <mxCell id="pS3SIrE1LRcRS9kYWRk5-21" value="" style="shape=image;verticalLabelPosition=bottom;labelBackgroundColor=default;verticalAlign=top;aspect=fixed;imageAspect=0;image=https://www.svgrepo.com/show/375374/cloud-nat.svg;" vertex="1" parent="pS3SIrE1LRcRS9kYWRk5-44">
          <mxGeometry x="10" y="10" width="110" height="110" as="geometry" />
        </mxCell>
        <mxCell id="pS3SIrE1LRcRS9kYWRk5-45" value="" style="group" connectable="0" vertex="1" parent="1">
          <mxGeometry x="1042" y="-430" width="240" height="114.64999999999998" as="geometry" />
        </mxCell>
        <mxCell id="pS3SIrE1LRcRS9kYWRk5-14" value="" style="verticalLabelPosition=bottom;sketch=0;aspect=fixed;html=1;verticalAlign=top;strokeColor=none;align=center;outlineConnect=0;shape=mxgraph.citrix.globe;" vertex="1" parent="pS3SIrE1LRcRS9kYWRk5-45">
          <mxGeometry width="120" height="114.65" as="geometry" />
        </mxCell>
        <mxCell id="pS3SIrE1LRcRS9kYWRk5-15" value="&lt;font style=&quot;font-size: 13px;&quot;&gt;Internet Egress: Outbound traffic&lt;/font&gt;" style="text;html=1;align=center;verticalAlign=middle;whiteSpace=wrap;rounded=0;" vertex="1" parent="pS3SIrE1LRcRS9kYWRk5-45">
          <mxGeometry x="140" y="50" width="100" height="30" as="geometry" />
        </mxCell>
        <mxCell id="pS3SIrE1LRcRS9kYWRk5-46" value="" style="group" connectable="0" vertex="1" parent="1">
          <mxGeometry x="590" y="-150" width="325" height="140" as="geometry" />
        </mxCell>
        <mxCell id="pS3SIrE1LRcRS9kYWRk5-30" value="" style="rounded=0;whiteSpace=wrap;html=1;" vertex="1" parent="pS3SIrE1LRcRS9kYWRk5-46">
          <mxGeometry width="325" height="140" as="geometry" />
        </mxCell>
        <mxCell id="pS3SIrE1LRcRS9kYWRk5-16" value="" style="shape=image;verticalLabelPosition=bottom;labelBackgroundColor=default;verticalAlign=top;aspect=fixed;imageAspect=0;image=https://www.osnowden.com/building-a-lb-with-tf-logo.png;" vertex="1" parent="pS3SIrE1LRcRS9kYWRk5-46">
          <mxGeometry x="25" y="10" width="120" height="120" as="geometry" />
        </mxCell>
        <mxCell id="pS3SIrE1LRcRS9kYWRk5-20" value="Cloud Load balancing&amp;nbsp;" style="text;html=1;align=center;verticalAlign=middle;whiteSpace=wrap;rounded=0;" vertex="1" parent="pS3SIrE1LRcRS9kYWRk5-46">
          <mxGeometry x="169" y="55" width="81" height="30" as="geometry" />
        </mxCell>
        <mxCell id="pS3SIrE1LRcRS9kYWRk5-47" style="edgeStyle=orthogonalEdgeStyle;rounded=0;orthogonalLoop=1;jettySize=auto;html=1;entryX=0.552;entryY=-0.012;entryDx=0;entryDy=0;entryPerimeter=0;" edge="1" parent="1" source="pS3SIrE1LRcRS9kYWRk5-34" target="pS3SIrE1LRcRS9kYWRk5-30">
          <mxGeometry relative="1" as="geometry">
            <mxPoint x="770" y="-160" as="targetPoint" />
          </mxGeometry>
        </mxCell>
        <mxCell id="pS3SIrE1LRcRS9kYWRk5-49" style="edgeStyle=orthogonalEdgeStyle;rounded=0;orthogonalLoop=1;jettySize=auto;html=1;entryX=0.5;entryY=0;entryDx=0;entryDy=0;" edge="1" parent="1" source="pS3SIrE1LRcRS9kYWRk5-30" target="pS3SIrE1LRcRS9kYWRk5-5">
          <mxGeometry relative="1" as="geometry" />
        </mxCell>
        <mxCell id="pS3SIrE1LRcRS9kYWRk5-51" value="Exposed applications" style="edgeLabel;html=1;align=center;verticalAlign=middle;resizable=0;points=[];" connectable="0" vertex="1" parent="1">
          <mxGeometry x="369.99999999999955" y="-339.9990909090905" as="geometry">
            <mxPoint x="139" y="-62" as="offset" />
          </mxGeometry>
        </mxCell>
      </root>
    </mxGraphModel>
  </diagram>
</mxfile>
